PathFileType	4	(x/y/z)	S09_SL_Cal_T01
DataRate	CameraRate	NumFrames	NumMarkers	Units	OrigDataRate	OrigDataStartFrame	OrigNumFrames
240	240	4	51	mm	240	1501	2400
Frame#	Time	Sternum			R.Acromium			L.Acromium			Top.Head			R.ASIS			L.ASIS			R.PSIS			L.PSIS			R.Great.Tro			L.Great.Tro			R.Iliac.Crest			L.Iliac.Crest			V.Sacral			R.Thigh.Upper.Post			R.Thigh.Lower.Ant			R.Thigh.Lower.Post			R.Thigh.Upper.Ant			R.Knee.Lat			R.Knee.Med			R.Shank.Upper.Post			R.Shank.Lower.Ant			R.Shank.Lower.Post			R.Shank.Upper.Ant			R.Ankle.Lat			R.Ankle.Med			R.Heel.Upper			R.Heel.Med			R.Heel.Lat			R.Toe.Lat			R.Toe.Med			R.Toe.Tip			L.Thigh.Upper.Post			L.Thigh.Lower.Ant			L.Thigh.Lower.Post			L.Thigh.Upper.Ant			L.Knee.Lat			L.Knee.Med			L.Shank.Upper.Post			L.Shank.Lower.Ant			L.Shank.Lower.Post			L.Shank.Upper.Ant			L.Ankle.Lat			L.Ankle.Med			L.Heel.Upper			L.Heel.Med			L.Heel.Lat			L.Toe.Lat			L.Toe.Med			L.Toe.Tip			Cervical.Spine			Back			
		X1	Y1	Z1	X2	Y2	Z2	X3	Y3	Z3	X4	Y4	Z4	X5	Y5	Z5	X6	Y6	Z6	X7	Y7	Z7	X8	Y8	Z8	X9	Y9	Z9	X10	Y10	Z10	X11	Y11	Z11	X12	Y12	Z12	X13	Y13	Z13	X14	Y14	Z14	X15	Y15	Z15	X16	Y16	Z16	X17	Y17	Z17	X18	Y18	Z18	X19	Y19	Z19	X20	Y20	Z20	X21	Y21	Z21	X22	Y22	Z22	X23	Y23	Z23	X24	Y24	Z24	X25	Y25	Z25	X26	Y26	Z26	X27	Y27	Z27	X28	Y28	Z28	X29	Y29	Z29	X30	Y30	Z30	X31	Y31	Z31	X32	Y32	Z32	X33	Y33	Z33	X34	Y34	Z34	X35	Y35	Z35	X36	Y36	Z36	X37	Y37	Z37	X38	Y38	Z38	X39	Y39	Z39	X40	Y40	Z40	X41	Y41	Z41	X42	Y42	Z42	X43	Y43	Z43	X44	Y44	Z44	X45	Y45	Z45	X46	Y46	Z46	X47	Y47	Z47	X48	Y48	Z48	X49	Y49	Z49	X50	Y50	Z50	X51	Y51	Z51	

1501	6.25	583.45	1198.4	294	453.84	1454.2	444.04	452.67	1447.9	128.88	519.73	1748.8	287.92	544.92	1034.8	401.63	531.49	1031.4	155.13	322.11	1062.1	334.76	323.59	1062.7	245.14	461.61	951.67	477.5	449.52	946.81	93.403	455.29	1115	448.97	423.35	1126.4	124.91	303.19	1027.9	288.19	427.55	710.03	468.12	479.05	598.27	428.32	405.4	620.03	448.55	493.29	686.04	450.4	442.89	525.7	421.93	421.15	511.19	304.53	362.44	353.86	441.16	431.31	294.77	427.11	360.12	277.78	431.63	426.99	368.18	438.27	392.31	93.856	411.54	422.69	105.52	328.53	331.51	76.454	361.35	342.64	44.638	332.72	333.83	46.597	397.2	492.63	39.85	453.91	542.42	46.176	348.11	588.89	60.698	395.56	364.25	702.56	123.29	431.74	596.2	113.32	371.01	613.88	126.26	430.41	684.73	97.759	409.94	516.19	119.33	423.29	515.41	254.83	362.8	382.86	102.9	429.92	295.66	113.07	366.54	305.86	106.2	425.55	373.31	110.58	403.86	106.09	126.17	417.64	96.724	217.59	334.75	69.716	172.94	345.88	45.825	206.42	337.6	42.247	144.8	512.18	43.803	95.745	545.8	44.424	205.23	599.03	61.654	148.79	384.8	1501.6	297.59	321.05	1243.7	284.75
1502	6.2542	583.5	1198.4	293.99	453.92	1454.2	444.04	452.73	1447.9	128.88	519.75	1748.9	287.86	544.96	1034.8	401.62	531.52	1031.4	155.13	322.15	1062.1	334.76	323.63	1062.7	245.14	461.65	951.67	477.5	449.56	946.81	93.402	455.33	1115.1	448.97	423.38	1126.4	124.91	303.22	1027.9	288.19	427.59	710.03	468.11	479.09	598.27	428.32	405.44	620.03	448.54	493.32	686.04	450.39	442.93	525.7	421.93	421.2	511.2	304.51	362.47	353.86	441.16	431.34	294.78	427.1	360.15	277.79	431.63	427.02	368.18	438.26	392.32	93.859	411.53	422.7	105.52	328.52	331.56	76.451	361.39	342.65	44.643	332.72	333.83	46.606	397.2	492.63	39.849	453.9	542.44	46.18	348.1	588.89	60.686	395.56	364.3	702.56	123.29	431.79	596.2	113.32	371.04	613.87	126.28	430.46	684.73	97.758	409.99	516.19	119.33	423.31	515.4	254.83	362.84	382.86	102.89	429.96	295.66	113.07	366.57	305.86	106.2	425.59	373.31	110.58	403.87	106.09	126.17	417.65	96.727	217.59	334.75	69.719	172.94	345.88	45.827	206.42	337.6	42.252	144.8	512.19	43.803	95.745	545.81	44.419	205.23	599.03	61.646	148.79	384.88	1501.6	297.59	321.1	1243.7	284.76
1503	6.2583	583.54	1198.4	293.98	454	1454.2	444.04	452.8	1447.9	128.88	519.77	1748.9	287.81	544.99	1034.8	401.62	531.56	1031.4	155.12	322.19	1062.1	334.76	323.67	1062.7	245.14	461.69	951.68	477.49	449.6	946.82	93.401	455.37	1115.1	448.97	423.42	1126.4	124.91	303.26	1027.9	288.19	427.63	710.03	468.11	479.12	598.27	428.31	405.47	620.03	448.53	493.36	686.04	450.39	442.96	525.71	421.92	421.24	511.21	304.5	362.51	353.87	441.16	431.36	294.78	427.09	360.18	277.8	431.63	427.05	368.18	438.26	392.33	93.862	411.53	422.71	105.52	328.52	331.62	76.448	361.43	342.65	44.648	332.72	333.84	46.614	397.2	492.63	39.848	453.9	542.45	46.184	348.1	588.9	60.673	395.56	364.34	702.56	123.29	431.84	596.2	113.32	371.07	613.85	126.3	430.51	684.73	97.756	410.05	516.19	119.32	423.34	515.4	254.82	362.88	382.86	102.88	430	295.66	113.06	366.61	305.87	106.19	425.64	373.31	110.57	403.88	106.09	126.17	417.65	96.73	217.59	334.76	69.722	172.94	345.89	45.829	206.42	337.6	42.257	144.81	512.19	43.802	95.745	545.81	44.414	205.23	599.04	61.638	148.79	384.95	1501.6	297.59	321.15	1243.7	284.76
1504	6.2625	583.59	1198.4	293.98	454.08	1454.2	444.04	452.86	1447.9	128.88	519.79	1748.9	287.77	545.03	1034.8	401.62	531.6	1031.4	155.12	322.23	1062.1	334.76	323.7	1062.7	245.14	461.73	951.68	477.49	449.63	946.82	93.4	455.41	1115.1	448.97	423.45	1126.4	124.91	303.3	1027.9	288.19	427.67	710.03	468.1	479.16	598.27	428.3	405.51	620.03	448.53	493.4	686.05	450.38	443	525.71	421.91	421.28	511.22	304.49	362.54	353.87	441.15	431.39	294.78	427.09	360.2	277.81	431.63	427.08	368.19	438.25	392.34	93.867	411.52	422.72	105.52	328.51	331.69	76.444	361.47	342.66	44.653	332.71	333.84	46.623	397.21	492.64	39.847	453.9	542.47	46.187	348.09	588.9	60.66	395.55	364.39	702.56	123.28	431.89	596.2	113.32	371.1	613.84	126.32	430.56	684.74	97.755	410.1	516.19	119.32	423.36	515.4	254.82	362.93	382.86	102.87	430.04	295.66	113.06	366.65	305.87	106.19	425.68	373.31	110.57	403.9	106.1	126.18	417.66	96.734	217.59	334.76	69.726	172.95	345.89	45.831	206.43	337.6	42.262	144.81	512.19	43.802	95.745	545.81	44.409	205.24	599.04	61.63	148.8	385.03	1501.6	297.59	321.2	1243.7	284.77
